<svg xmlns="http://www.w3.org/2000/svg" viewBox="0 0 57 56.557">
    <path d="M57 12H41.741a7 7 0 0 0-10.683-8.955l-2.829 2.829L25.4 3.045A7 7 0 0 0 14.718 12H0v14h5v31.555h48V26h4zM32.472 4.459a5 5 0 0 1 7.071 7.071l-.472.47H24.929l4.714-4.714zM16.916 11.53a5 5 0 1 1 7.071-7.071l2.828 2.829-3.535 3.535a6.159 6.159 0 0 0-.581.689c-.054.073-.107.152-.159.229s-.123.167-.18.26h-4.972zM2 24V14h26v10H2zm26 2v13.281H7V26h21zM7 41.281h21v14.274H7zm23 14.274V41.281h21v14.274zm21-16.274H30V26h21zM55 24H30V14h25z" transform="translate(0 -.998)"/>
</svg>
