<svg xmlns="http://www.w3.org/2000/svg" viewBox="0 0 57 57">
    <path d="M66.79 35.615h-1.454V25.8a4.057 4.057 0 0 0-4-4.118h-1.095v-6.564A3.942 3.942 0 0 0 56.484 11h-.244L14.757 21.667c-.012 0-.035.012-.047.012A4.092 4.092 0 0 0 11 25.8v38.082A4.057 4.057 0 0 0 15 68h46.334a4.081 4.081 0 0 0 4.118-4.118V53.808h1.338A1.142 1.142 0 0 0 68 52.6V36.836a1.218 1.218 0 0 0-1.21-1.221zM56.716 13.3a1.789 1.789 0 0 1 1.21 1.815v6.549H24.459L56.716 13.3zm6.317 50.579a1.765 1.765 0 0 1-1.7 1.815H15a1.765 1.765 0 0 1-1.7-1.815V25.8a1.765 1.765 0 0 1 1.7-1.818h46.2a1.765 1.765 0 0 1 1.7 1.818v9.818h-12a9.1 9.1 0 1 0 0 18.193h12.133v10.071zM65.569 51.5H50.9a6.666 6.666 0 1 1 0-13.331h14.669z" transform="translate(-11 -11)"/>
</svg>
