<svg xmlns="http://www.w3.org/2000/svg"><symbol id="gift" viewBox="0 0 57 56.557">
    <path id="gift" d="M57 12H41.741a7 7 0 0 0-10.683-8.955l-2.829 2.829L25.4 3.045A7 7 0 0 0 14.718 12H0v14h5v31.555h48V26h4zM32.472 4.459a5 5 0 0 1 7.071 7.071l-.472.47H24.929l4.714-4.714zM16.916 11.53a5 5 0 1 1 7.071-7.071l2.828 2.829-3.535 3.535a6.159 6.159 0 0 0-.581.689c-.054.073-.107.152-.159.229s-.123.167-.18.26h-4.972zM2 24V14h26v10H2zm26 2v13.281H7V26h21zM7 41.281h21v14.274H7zm23 14.274V41.281h21v14.274zm21-16.274H30V26h21zM55 24H30V14h25z" transform="translate(0 -.998)"/>
</symbol><symbol id="percent" viewBox="0 0 57.025 57.026">
    <path id="percent" d="M39.018 48.021a9 9 0 1 1 9 9 9.013 9.013 0 0 1-9-9zm3 0a6 6 0 1 0 6-6 6.01 6.01 0 0 0-6 6zM.439 54.464L54.464.44l2.122 2.121L2.561 56.586zM0 9a9 9 0 1 1 9 9 9.013 9.013 0 0 1-9-9zm3 0a6 6 0 1 0 6-6 6.008 6.008 0 0 0-6 6z"/>
</symbol><symbol id="wallet" viewBox="0 0 57 57">
    <path id="wallet" d="M66.79 35.615h-1.454V25.8a4.057 4.057 0 0 0-4-4.118h-1.095v-6.564A3.942 3.942 0 0 0 56.484 11h-.244L14.757 21.667c-.012 0-.035.012-.047.012A4.092 4.092 0 0 0 11 25.8v38.082A4.057 4.057 0 0 0 15 68h46.334a4.081 4.081 0 0 0 4.118-4.118V53.808h1.338A1.142 1.142 0 0 0 68 52.6V36.836a1.218 1.218 0 0 0-1.21-1.221zM56.716 13.3a1.789 1.789 0 0 1 1.21 1.815v6.549H24.459L56.716 13.3zm6.317 50.579a1.765 1.765 0 0 1-1.7 1.815H15a1.765 1.765 0 0 1-1.7-1.815V25.8a1.765 1.765 0 0 1 1.7-1.818h46.2a1.765 1.765 0 0 1 1.7 1.818v9.818h-12a9.1 9.1 0 1 0 0 18.193h12.133v10.071zM65.569 51.5H50.9a6.666 6.666 0 1 1 0-13.331h14.669z" transform="translate(-11 -11)"/>
</symbol></svg>